<svg xmlns="http://www.w3.org/2000/svg" style="display:none">

    <!-- 20×20 filled icons -->

    <symbol id="icon-info" viewBox="0 0 20 20">
        <path fill="currentColor" fill-rule="evenodd" clip-rule="evenodd"
              d="M18 10a8 8 0 11-16 0 8 8 0 0116 0zm-7-4a1 1 0 11-2 0
                 1 1 0 012 0zM9 9a1 1 0 000 2v3a1 1 0 001 1h1a1 1 0 100-2v-3a1
                 1 0 00-1-1H9z" />
    </symbol>

    <symbol id="icon-x-circle" viewBox="0 0 20 20">
        <path fill="currentColor" fill-rule="evenodd" clip-rule="evenodd"
              d="M4.293 4.293a1 1 0 011.414 0L10 8.586l4.293-4.293a1 1 0
                 111.414 1.414L11.414 10l4.293 4.293a1 1 0 01-1.414 1.414L10
                 11.414l-4.293 4.293a1 1 0 01-1.414-1.414L8.586 10 4.293
                 5.707a1 1 0 010-1.414z" />
    </symbol>

    <symbol id="icon-copy" viewBox="0 0 20 20">
        <path fill="currentColor"
              d="M8 3a1 1 0 011-1h2a1 1 0 110 2H9a1 1 0 01-1-1z" />
        <path fill="currentColor"
              d="M6 3a2 2 0 00-2 2v11a2 2 0 002 2h8a2 2 0 002-2V5a2 2 0
                 00-2-2 3 3 0 01-3 3H9a3 3 0 01-3-3z" />
    </symbol>

    <!-- 24×24 outlined icons -->

    <symbol id="icon-photo" viewBox="0 0 24 24" fill="none">
        <path stroke="currentColor" stroke-width="2"
              stroke-linecap="round" stroke-linejoin="round"
              d="M4 16l4.586-4.586a2 2 0 012.828 0L16 16m-2-2l1.586-1.586a2
                 2 0 012.828 0L20 14m-6-6h.01M6 20h12a2 2 0 002-2V6a2 2 0
                 00-2-2H6a2 2 0 00-2 2v12a2 2 0 002 2z" />
    </symbol>

    <symbol id="icon-chevron-down" viewBox="0 0 24 24" fill="none">
        <path stroke="currentColor" stroke-width="2"
              stroke-linecap="round" stroke-linejoin="round"
              d="M19 9l-7 7-7-7" />
    </symbol>

    <symbol id="icon-refresh" viewBox="0 0 24 24" fill="none">
        <path stroke="currentColor" stroke-width="2"
              stroke-linecap="round" stroke-linejoin="round"
              d="M4 4v5h.582m15.356 2A8.001 8.001 0 004.582 9m0 0H9m11
                 11v-5h-.581m0 0a8.003 8.003 0 01-15.357-2m15.357 2H15" />
    </symbol>

    <symbol id="icon-x-mark" viewBox="0 0 24 24" fill="none">
        <path stroke="currentColor" stroke-width="2"
              stroke-linecap="round" stroke-linejoin="round"
              d="M6 18L18 6M6 6l12 12" />
    </symbol>

</svg>
